HIERARCHY
ROOT Pelvis
{
	OFFSET 0.000000 0.000000 0.000000
	CHANNELS 6 Xposition Yposition Zposition Xrotation Yrotation Zrotation
	JOINT LeftUpLeg_virtual
	{
		OFFSET 0.000000 0.000000 0.000000
		CHANNELS 3 Xrotation Yrotation Zrotation
		JOINT LeftUpLeg
		{
			OFFSET 18.735201 -5.666702 -4.541200
			CHANNELS 3 Xrotation Yrotation Zrotation
			JOINT LeftLeg
			{
				OFFSET -0.021200 -31.938179 0.493100
				CHANNELS 3 Xrotation Yrotation Zrotation
				JOINT LeftFoot
				{
					OFFSET 0.021200 -31.938179 -4.336299
					CHANNELS 3 Xrotation Yrotation Zrotation
					JOINT LeftToeBase
					{
						OFFSET 0.943001 -26.722000 15.023500
						CHANNELS 3 Xrotation Yrotation Zrotation
						End Site
						{
							OFFSET 0 0 0
						}
					}
				}
			}
		}
	}
	JOINT RightUpLeg_virtual
	{
		OFFSET 0.000000 0.000000 0.000000
		CHANNELS 3 Xrotation Yrotation Zrotation
		JOINT RightUpLeg
		{
			OFFSET -18.735201 -5.666702 -4.541200
			CHANNELS 3 Xrotation Yrotation Zrotation
			JOINT RightLeg
			{
				OFFSET 0.018946 -31.938133 0.493100
				CHANNELS 3 Xrotation Yrotation Zrotation
				JOINT RightFoot
				{
					OFFSET -0.018946 -31.938126 -4.336299
					CHANNELS 3 Xrotation Yrotation Zrotation
					JOINT RightToeBase
					{
						OFFSET -0.943001 -26.722004 15.023500
						CHANNELS 3 Xrotation Yrotation Zrotation
						End Site
						{
							OFFSET 0 0 0
						}
					}
				}
			}
		}
	}
	JOINT Hips_virtual
	{
		OFFSET 0.000000 0.000000 0.000000
		CHANNELS 3 Xrotation Yrotation Zrotation
		JOINT Hips
		{
			OFFSET -0.000000 -0.000000 -0.000000
			CHANNELS 3 Xrotation Yrotation Zrotation
			JOINT Spine
			{
				OFFSET 0.000000 10.199997 -0.299500
				CHANNELS 3 Xrotation Yrotation Zrotation
				JOINT Spine1
				{
					OFFSET 0.000000 11.900002 -1.516600
					CHANNELS 3 Xrotation Yrotation Zrotation
					JOINT Spine2
					{
						OFFSET 0.000000 13.600006 -2.842500
						CHANNELS 3 Xrotation Yrotation Zrotation
						JOINT Neck_virtual
						{
							OFFSET 0.000000 0.000000 0.000000
							CHANNELS 3 Xrotation Yrotation Zrotation
							JOINT Neck
							{
								OFFSET 0.000000 9.624100 -2.890100
								CHANNELS 3 Xrotation Yrotation Zrotation
								JOINT Head
								{
									OFFSET 0.000000 14.068802 -1.351900
									CHANNELS 3 Xrotation Yrotation Zrotation
									End Site
									{
										OFFSET 0 0 0
									}
								}
							}
						}
						JOINT LeftShoulder_virtual
						{
							OFFSET 0.000000 0.000000 0.000000
							CHANNELS 3 Xrotation Yrotation Zrotation
							JOINT LeftShoulder
							{
								OFFSET 15.263000 10.923401 -0.547700
								CHANNELS 3 Xrotation Yrotation Zrotation
								JOINT LeftArm
								{
									OFFSET 25.438599 -2.830597 -13.032500
									CHANNELS 3 Xrotation Yrotation Zrotation
									JOINT LeftForeArm
									{
										OFFSET 29.960503 0.000000 0.000000
										CHANNELS 3 Xrotation Yrotation Zrotation
										JOINT LeftHand
										{
											OFFSET 27.849251 0.000000 0.000000
											CHANNELS 3 Xrotation Yrotation Zrotation
											End Site
											{
												OFFSET 0 0 0
											}
										}
									}
								}
							}
						}
						JOINT RightShoulder_virtual
						{
							OFFSET 0.000000 0.000000 0.000000
							CHANNELS 3 Xrotation Yrotation Zrotation
							JOINT RightShoulder
							{
								OFFSET -15.263000 10.923401 -0.547700
								CHANNELS 3 Xrotation Yrotation Zrotation
								JOINT RightArm
								{
									OFFSET -25.438599 -2.830597 -13.032500
									CHANNELS 3 Xrotation Yrotation Zrotation
									JOINT RightForeArm
									{
										OFFSET -29.960503 0.000000 0.000000
										CHANNELS 3 Xrotation Yrotation Zrotation
										JOINT RightHand
										{
											OFFSET -27.849251 0.000000 0.000000
											CHANNELS 3 Xrotation Yrotation Zrotation
											End Site
											{
												OFFSET 0 0 0
											}
										}
									}
								}
							}
						}
					}
				}
			}
		}
	}
}
MOTION
Frames: 9
Frame Time: 0.03333333
-0.980144 80.891808 4.454088 0.000000 0.000000 0.000000 4.047300 -36.059195 5.640038 -40.373603 -0.620364 20.093611 46.645281 -10.002669 -2.599519 -9.511141 -7.299027 -17.247840 0.000000 0.000000 0.000000 10.574274 -38.569815 1.558704 -21.413357 -15.657684 -21.127319 45.166794 0.177016 -0.734887 -13.604667 -3.229960 10.414291 0.000000 0.000000 0.000000 -0.545710 -23.975335 3.149237 -1.597523 -10.473199 -1.059654 8.445953 7.614295 -4.290955 3.374604 3.939950 -2.100803 0.000000 0.000000 0.000000 4.191518 3.753194 -1.716832 0.316857 2.595229 -0.447095 0.000000 0.000000 0.000000 2.904004 3.471330 -1.200177 1.267003 5.972135 -4.381005 -26.388666 -28.609139 -47.592625 3.907810 -78.377493 2.129297 0.000000 0.000000 0.000000 1.586588 3.316913 -2.452936 2.011330 15.377817 -5.183092 -39.631415 30.976684 52.363072 -153.602103 76.946138 152.276404 0.000000 0.000000 0.000000 
-0.660359 80.996704 4.359406 0.000000 0.000000 0.000000 4.310691 -37.016238 5.811311 -40.226249 -0.840799 20.092588 46.283769 -9.300722 -3.165343 -9.759094 -6.329371 -17.509858 0.000000 0.000000 0.000000 10.255886 -39.298306 1.487676 -22.042499 -15.739035 -21.358626 45.575660 0.971870 -1.299494 -13.315333 -2.242266 10.194948 0.000000 0.000000 0.000000 -0.873269 -25.434170 3.127207 -1.247022 -11.098536 -0.982639 8.706412 7.193480 -4.130591 3.465597 3.724734 -2.026930 0.000000 0.000000 0.000000 4.324591 3.711381 -1.730819 0.354127 2.754059 -0.503235 0.000000 0.000000 0.000000 3.038470 3.278665 -1.081564 1.357145 6.328816 -4.142735 -26.378862 -27.112030 -45.670699 3.168525 -76.057162 2.058583 0.000000 0.000000 0.000000 1.838093 3.016499 -2.389795 2.230473 14.281907 -4.799124 -39.494531 31.173137 54.197268 -159.282607 73.605520 158.283132 0.000000 0.000000 0.000000 
-0.354556 81.085503 4.263999 0.000000 0.000000 0.000000 4.575904 -38.044523 5.975766 -40.081060 -1.076090 20.068815 46.012812 -8.621580 -3.698834 -9.963525 -5.403308 -17.750721 0.000000 0.000000 0.000000 9.953693 -39.991646 1.432183 -22.624312 -15.822644 -21.556712 45.993671 1.740034 -1.850103 -13.021279 -1.276825 9.978357 0.000000 0.000000 0.000000 -1.148783 -26.908196 3.098930 -0.813554 -11.892282 -0.960359 8.932840 6.675554 -3.976170 3.549748 3.455992 -1.959247 0.000000 0.000000 0.000000 4.396479 3.633276 -1.746975 0.362096 2.890018 -0.554671 0.000000 0.000000 0.000000 3.157018 3.048824 -0.956718 1.431432 6.569847 -3.798710 -26.479260 -25.674731 -43.625473 2.471080 -73.638318 2.061353 0.000000 0.000000 0.000000 2.066993 2.689119 -2.335986 2.450507 13.179004 -4.531054 -39.216149 31.499070 55.703526 -162.763927 70.508125 162.077739 0.000000 0.000000 0.000000 
-0.069801 81.145836 4.170008 0.000000 0.000000 0.000000 4.838482 -39.128077 6.133352 -39.938206 -1.324727 20.023145 45.849427 -7.998455 -4.171889 -10.113651 -4.566885 -17.954790 0.000000 0.000000 0.000000 9.674033 -40.651643 1.388869 -23.147187 -15.911096 -21.725486 46.417747 2.438816 -2.361598 -12.727928 -0.384622 9.769845 0.000000 0.000000 0.000000 -1.367333 -28.344315 3.061597 -0.303766 -12.817319 -1.013713 9.116448 6.060483 -3.828807 3.620094 3.134611 -1.896078 0.000000 0.000000 0.000000 4.401144 3.511973 -1.762827 0.339941 2.994649 -0.598562 0.000000 0.000000 0.000000 3.254945 2.781617 -0.831198 1.489585 6.663774 -3.368748 -26.649819 -24.358956 -41.538639 1.832403 -71.191922 2.112938 0.000000 0.000000 0.000000 2.264818 2.336509 -2.287482 2.657370 12.070947 -4.364793 -38.749852 31.961372 56.819948 -165.061862 67.806068 164.679249 0.000000 0.000000 0.000000 
0.186725 81.169220 4.080955 0.000000 0.000000 0.000000 5.095874 -40.235398 6.283298 -39.792822 -1.580653 19.957306 45.801589 -7.461472 -4.555514 -10.202009 -3.862930 -18.103111 0.000000 0.000000 0.000000 9.424572 -41.276554 1.352532 -23.598121 -16.005628 -21.871036 46.835912 3.026554 -2.811643 -12.445985 0.384037 9.570722 0.000000 0.000000 0.000000 -1.531344 -29.681728 3.011393 0.260710 -13.828079 -1.150324 9.252327 5.360923 -3.692335 3.671710 2.768486 -1.837148 0.000000 0.000000 0.000000 4.338741 3.345647 -1.777058 0.290134 3.061657 -0.632405 0.000000 0.000000 0.000000 3.328173 2.484183 -0.712132 1.533171 6.599702 -2.880741 -26.843333 -23.212965 -39.510834 1.267167 -68.801260 2.183256 0.000000 0.000000 0.000000 2.425876 1.966556 -2.240330 2.839753 10.975388 -4.281417 -38.064067 32.562811 57.516149 -166.660659 65.587547 166.579885 0.000000 0.000000 0.000000 
0.408083 81.151749 4.001959 0.000000 0.000000 0.000000 5.344774 -41.318526 6.422986 -39.638695 -1.833011 19.874392 45.867644 -7.034466 -4.823138 -10.225130 -3.326403 -18.176214 0.000000 0.000000 0.000000 9.214864 -41.856058 1.318218 -23.961919 -16.105175 -21.998707 47.228979 3.469047 -3.182344 -12.189904 0.986577 9.380261 0.000000 0.000000 0.000000 -1.649934 -30.856022 2.943992 0.844837 -14.874793 -1.361799 9.340524 4.603029 -3.573543 3.702684 2.372901 -1.783941 0.000000 0.000000 0.000000 4.215985 3.138577 -1.789769 0.218219 3.087706 -0.654289 0.000000 0.000000 0.000000 3.372737 2.170776 -0.607713 1.563981 6.388574 -2.368443 -27.020966 -22.267824 -37.657900 0.780530 -66.560986 2.235890 0.000000 0.000000 0.000000 2.547805 1.593566 -2.191346 2.989854 9.927537 -4.259832 -37.147060 33.298128 57.792382 -167.806410 63.898476 168.036027 0.000000 0.000000 0.000000 
0.588090 81.093834 3.938965 0.000000 0.000000 0.000000 5.577545 -42.316078 6.546296 -39.473244 -2.066998 19.778696 46.037094 -6.733167 -4.954232 -10.183970 -2.981105 -18.157742 0.000000 0.000000 0.000000 9.056510 -42.368579 1.283947 -24.221285 -16.206215 -22.109869 47.574177 3.744363 -3.460653 -11.975221 1.393476 9.198848 0.000000 0.000000 0.000000 -1.736881 -31.802061 2.855301 1.405618 -15.903797 -1.624429 9.386234 3.825843 -3.481268 3.714513 1.970095 -1.739401 0.000000 0.000000 0.000000 4.045335 2.901355 -1.802382 0.132050 3.072841 -0.663041 0.000000 0.000000 0.000000 3.384373 1.861038 -0.526448 1.582164 6.059232 -1.868281 -27.167159 -21.540380 -36.105107 0.363921 -64.575914 2.229249 0.000000 0.000000 0.000000 2.631680 1.237691 -2.138853 3.103747 8.979452 -4.280147 -36.008593 34.147196 57.667731 -168.626716 62.761440 169.183185 0.000000 0.000000 0.000000 
0.722053 80.999405 3.897355 0.000000 0.000000 0.000000 5.779394 -43.160597 6.642133 -39.301704 -2.265672 19.674742 46.292365 -6.565035 -4.937430 -10.083972 -2.838346 -18.037963 0.000000 0.000000 0.000000 8.962028 -42.782147 1.252108 -24.358610 -16.302975 -22.200251 47.849642 3.844941 -3.638078 -11.815651 1.590835 9.030582 0.000000 0.000000 0.000000 -1.807457 -32.456642 2.742479 1.900189 -16.856400 -1.903179 9.399169 3.078950 -3.424551 3.711882 1.587844 -1.707108 0.000000 0.000000 0.000000 3.843025 2.650126 -1.817368 0.040532 3.020443 -0.658319 0.000000 0.000000 0.000000 3.358991 1.577325 -0.476179 1.585409 5.650991 -1.415525 -27.294814 -21.040427 -34.977597 -0.003741 -62.956142 2.120417 0.000000 0.000000 0.000000 2.681607 0.923543 -2.083302 3.181201 8.196498 -4.327113 -34.679599 35.068432 57.163421 -169.185958 62.193565 170.085453 0.000000 0.000000 0.000000 
0.807591 80.874924 3.880708 0.000000 0.000000 0.000000 5.927987 -43.788032 6.694394 -39.138845 -2.412368 19.566113 46.611410 -6.530621 -4.772111 -9.934696 -2.897708 -17.816139 0.000000 0.000000 0.000000 8.942190 -43.058595 1.228383 -24.359298 -16.387914 -22.260840 48.038264 3.776810 -3.710095 -11.720884 1.579904 8.884336 0.000000 0.000000 0.000000 -1.874745 -32.762010 2.605000 2.294327 -17.670145 -2.157944 9.392384 2.418192 -3.410601 3.701926 1.256989 -1.690264 0.000000 0.000000 0.000000 3.626319 2.404939 -1.837970 -0.047875 2.936686 -0.640730 0.000000 0.000000 0.000000 3.294486 1.341850 -0.462993 1.569996 5.205752 -1.040314 -27.435849 -20.776780 -34.386458 -0.349788 -61.806757 1.870821 0.000000 0.000000 0.000000 2.703901 0.678004 -2.027643 3.224976 7.651043 -4.392810 -33.211180 35.996091 56.289737 -169.512605 62.218761 170.758636 0.000000 0.000000 0.000000 
